<svg xmlns="http://www.w3.org/2000/svg" viewBox="0 0 32 32" fill="none">
  <defs>
    <linearGradient id="primaryGrad" x1="0%" y1="0%" x2="100%" y2="100%">
      <stop offset="0%" stop-color="#3b82f6" />
      <stop offset="100%" stop-color="#1d4ed8" />
    </linearGradient>
    <linearGradient id="primaryGrad2" x1="0%" y1="100%" x2="100%" y2="0%">
      <stop offset="0%" stop-color="#2563eb" />
      <stop offset="100%" stop-color="#3b82f6" />
    </linearGradient>
  </defs>
  
  <!-- Chapeau de diplômé (style plat & épuré / Flat Style) -->
  <path d="M16 3L2 10.5L16 18L28 11.571V21C28 22.104 28.895 23 30 23C31.104 23 32 22.104 32 21V10.5L16 3Z" fill="url(#primaryGrad)"/>
  
  <path d="M6 15.2V22C6 25.313 10.477 28 16 28C21.522 28 26 25.313 26 22V15.2C22.618 17.659 18.91 18.5 16 18.5C13.089 18.5 9.381 17.659 6 15.2Z" fill="url(#primaryGrad2)"/>
</svg>